HIERARCHY
ROOT Hips
{
	OFFSET 0.000000 0.000000 0.000000 
	CHANNELS 6 Xposition Yposition Zposition Zrotation Yrotation Xrotation
	JOINT LeftUpLeg
	{
		OFFSET 1.363060 -1.794630 0.839290 
		CHANNELS 3 Zrotation Yrotation Xrotation
		JOINT LeftLeg
		{
			OFFSET 2.448110 -6.726130 0.000000 
			CHANNELS 3 Zrotation Yrotation Xrotation
			JOINT LeftFoot
			{
				OFFSET 2.562200 -7.039590 0.000000 
				CHANNELS 3 Zrotation Yrotation Xrotation
				JOINT LeftToeBase
				{
					OFFSET 0.157640 -0.433110 2.322550 
					CHANNELS 3 Zrotation Yrotation Xrotation
					End Site
					{
						OFFSET 0.000000 0.000000 0.000000 
					}
				}
			}
		}
	}
	JOINT RightUpLeg
	{
		OFFSET -1.305520 -1.794630 0.839290 
		CHANNELS 3 Zrotation Yrotation Xrotation
		JOINT RightLeg
		{
			OFFSET -2.542530 -6.985550 0.000000 
			CHANNELS 3 Zrotation Yrotation Xrotation
			JOINT RightFoot
			{
				OFFSET -2.568260 -7.056230 0.000000 
				CHANNELS 3 Zrotation Yrotation Xrotation
				JOINT RightToeBase
				{
					OFFSET -0.164730 -0.452590 2.363150 
					CHANNELS 3 Zrotation Yrotation Xrotation
					End Site
					{
						OFFSET 0.000000 0.000000 0.000000 
					}
				}
			}
		}
	}
	JOINT Spine
	{
		OFFSET 0.028270 2.035590 -0.193380 
		CHANNELS 3 Zrotation Yrotation Xrotation
		JOINT Spine1
		{
			OFFSET 0.056720 2.048850 -0.042750 
			CHANNELS 3 Zrotation Yrotation Xrotation
			JOINT Neck1
			{
				OFFSET -0.054170 1.746240 0.172020 
				CHANNELS 3 Zrotation Yrotation Xrotation
				JOINT Head
				{
					OFFSET 0.104070 1.761360 -0.123970 
					CHANNELS 3 Zrotation Yrotation Xrotation
					End Site
					{
						OFFSET 0.000000 0.000000 0.000000 
					}
				}
			}
			JOINT LeftArm
			{
				OFFSET 3.362410 1.200890 -0.311210 
				CHANNELS 3 Zrotation Yrotation Xrotation
				JOINT LeftForeArm
				{
					OFFSET 4.983000 -0.000000 -0.000000 
					CHANNELS 3 Zrotation Yrotation Xrotation
					JOINT LeftHand
					{
						OFFSET 3.483560 -0.000000 -0.000000 
						CHANNELS 3 Zrotation Yrotation Xrotation
						JOINT LeftHandIndex1
						{
							OFFSET 0.715260 -0.000000 -0.000000 
							CHANNELS 3 Zrotation Yrotation Xrotation
							End Site
							{
								OFFSET 0.000000 0.000000 0.000000 
							}
						}
					}
				}
			}
			JOINT RightArm
			{
				OFFSET -3.136600 1.374050 -0.404650 
				CHANNELS 3 Zrotation Yrotation Xrotation
				JOINT RightForeArm
				{
					OFFSET -5.241900 -0.000000 -0.000000 
					CHANNELS 3 Zrotation Yrotation Xrotation
					JOINT RightHand
					{
						OFFSET -3.444170 -0.000000 -0.000000 
						CHANNELS 3 Zrotation Yrotation Xrotation
						JOINT RightHandIndex1
						{
							OFFSET -0.622530 -0.000000 -0.000000 
							CHANNELS 3 Zrotation Yrotation Xrotation
							End Site
							{
								OFFSET 0.000000 0.000000 0.000000 
							}
						}
					}
				}
			}
		}
	}
}
MOTION
Frames: 9
Frame Time: 0.041667
5.557537 18.104202 10.473538 -0.027986 17.237931 2.082287 -11.713534 -17.407069 7.117263 0.236897 5.971290 16.672808 0.369125 -6.691302 -0.833555 0.118000 2.215000 6.100100 9.377946 26.767739 -34.819764 -6.887856 -14.346476 47.254459 -0.221960 8.445389 0.548280 -0.059300 1.571500 -4.322800 -7.856648 -1.828752 10.353168 0.885516 -0.895593 -6.276928 3.113981 2.490800 29.234914 -1.312800 2.690900 14.218800 -89.916682 -15.104139 29.187550 21.331244 -21.560482 -4.435754 -0.360617 -1.228263 -25.881110 -7.125000 0.000000 0.000000 83.686130 4.295360 24.893346 -23.919191 24.491017 -6.447309 1.506176 0.133275 -15.350452 7.125000 0.000000 0.000000 
5.553398 18.106223 10.492500 -0.091918 17.272393 2.150339 -11.587170 -17.342472 7.054156 0.230231 5.951582 16.615506 0.367366 -6.642706 -0.779596 0.116200 2.197700 6.052300 9.470984 26.676498 -34.808629 -6.867669 -14.331677 47.182805 -0.222853 8.633017 0.537706 -0.059800 1.577600 -4.339700 -7.753164 -1.800185 10.392984 0.878033 -0.883003 -6.276263 3.107054 2.495832 29.196161 -1.321100 2.694600 14.201200 -89.968725 -15.344285 29.362540 21.679639 -22.003888 -4.610239 -0.343881 -1.253065 -26.677777 -7.125000 0.000000 0.000000 83.549881 4.431078 24.690799 -23.851480 24.410923 -6.403176 1.506208 0.133007 -15.409838 7.125000 0.000000 0.000000 
5.549644 18.107859 10.510692 -0.149632 17.312223 2.209194 -11.476659 -17.284582 6.997232 0.225772 5.937235 16.574326 0.366229 -6.602257 -0.749136 0.112500 2.163000 5.956500 9.560099 26.566829 -34.772375 -6.841861 -14.312546 47.091069 -0.223487 8.860681 0.531609 -0.059800 1.577300 -4.338800 -7.652105 -1.777566 10.429464 0.877124 -0.873103 -6.274931 3.113054 2.485493 29.166828 -1.324400 2.692900 14.187800 -90.022768 -15.559216 29.553073 22.024196 -22.439978 -4.786301 -0.328238 -1.273806 -27.375793 -7.125000 0.000000 0.000000 83.430047 4.566768 24.474805 -23.773282 24.318847 -6.353738 1.506670 0.131075 -15.430414 7.125000 0.000000 0.000000 
5.546082 18.109207 10.528307 -0.192627 17.360051 2.263297 -11.389527 -17.228746 6.940507 0.223867 5.929078 16.552515 0.365391 -6.567478 -0.745809 0.106600 2.104900 5.795600 9.633594 26.444639 -34.710545 -6.810724 -14.288924 46.979669 -0.223693 9.129867 0.523352 -0.058600 1.562100 -4.296900 -7.558544 -1.761720 10.461798 0.885697 -0.866072 -6.270656 3.138332 2.458452 29.149451 -1.319500 2.685700 14.179600 -90.077075 -15.749454 29.763806 22.364371 -22.867730 -4.963584 -0.313398 -1.290008 -27.984101 -7.125000 0.000000 0.000000 83.328977 4.702894 24.241518 -23.684121 24.214136 -6.298825 1.507450 0.127435 -15.407112 7.125000 0.000000 0.000000 
5.542617 18.110362 10.545440 -0.216041 17.417421 2.318146 -11.328110 -17.168049 6.877037 0.224498 5.926665 16.548905 0.365127 -6.537439 -0.770931 0.098100 2.020200 5.561400 9.684733 26.315633 -34.626539 -6.775154 -14.261555 46.851729 -0.223411 9.437897 0.507201 -0.056200 1.530300 -4.209200 -7.476591 -1.753349 10.488350 0.904096 -0.862408 -6.260869 3.186792 2.414373 29.147844 -1.303700 2.672700 14.179200 -90.130803 -15.915118 29.995244 22.702624 -23.290542 -5.143464 -0.299626 -1.303643 -28.522686 -7.125000 0.000000 0.000000 83.247560 4.836836 23.994675 -23.586212 24.099324 -6.239865 1.508508 0.121872 -15.343960 7.125000 0.000000 0.000000 
5.539441 18.111613 10.562188 -0.218709 17.485053 2.376966 -11.290284 -17.092524 6.801991 0.227120 5.928154 16.558465 0.365028 -6.508540 -0.820521 0.087200 1.904200 5.241000 9.712136 26.183126 -34.524544 -6.736505 -14.231285 46.712216 -0.222522 9.777306 0.482614 -0.052700 1.481800 -4.075500 -7.411553 -1.748720 10.506657 0.928590 -0.860161 -6.244933 3.253469 2.350028 29.159193 -1.281000 2.653100 14.184300 -90.181762 -16.053026 30.254826 23.039724 -23.709114 -5.326449 -0.285802 -1.314588 -29.003958 -7.125000 0.000000 0.000000 83.192162 4.963304 23.724715 -23.481337 23.976647 -6.177742 1.510015 0.114999 -15.249140 7.125000 0.000000 0.000000 
5.536264 18.112961 10.578840 -0.206366 17.561204 2.440339 -11.267951 -16.995788 6.714385 0.230828 5.931428 16.574885 0.365210 -6.483379 -0.887482 0.074900 1.765100 4.856900 9.722341 26.052785 -34.407627 -6.696427 -14.199777 46.567311 -0.220864 10.139475 0.448614 -0.048000 1.413600 -3.887600 -7.359040 -1.747382 10.514568 0.957456 -0.859393 -6.223464 3.337212 2.269060 29.181736 -1.251100 2.627800 14.193900 -90.230741 -16.164950 30.541623 23.372126 -24.119003 -5.510657 -0.272181 -1.323577 -29.442139 -7.125000 0.000000 0.000000 83.163219 5.074421 23.435400 -23.375196 23.852584 -6.115460 1.511881 0.107477 -15.130560 7.125000 0.000000 0.000000 
5.533184 18.114309 10.595396 -0.185196 17.644590 2.504802 -11.253715 -16.873005 6.617530 0.235100 5.935197 16.593964 0.365731 -6.464313 -0.961456 0.062000 1.606300 4.418800 9.725698 25.922440 -34.277744 -6.656640 -14.168429 46.423413 -0.218165 10.516917 0.412212 -0.042300 1.328100 -3.652200 -7.307944 -1.751771 10.514303 0.993130 -0.860936 -6.196645 3.425920 2.181918 29.211034 -1.218000 2.599600 14.207000 -90.283063 -16.249468 30.842946 23.702339 -24.523316 -5.696987 -0.258143 -1.331375 -29.844234 -7.125000 0.000000 0.000000 83.152812 5.172087 23.141894 -23.267619 23.727021 -6.053324 1.514185 0.099808 -15.006422 7.125000 0.000000 0.000000 
5.530200 18.115656 10.612144 -0.163692 17.733787 2.567163 -11.239154 -16.731079 6.516852 0.239384 5.939102 16.614172 0.366447 -6.455446 -1.034352 0.050000 1.442300 3.966800 9.733311 25.788339 -34.137819 -6.618651 -14.138793 46.286544 -0.214318 10.905008 0.381818 -0.036100 1.226100 -3.371100 -7.253545 -1.759537 10.505239 1.031777 -0.863722 -6.165946 3.509946 2.091039 29.240911 -1.187000 2.569300 14.220100 -90.339566 -16.306316 31.158361 24.028446 -24.919660 -5.884485 -0.243300 -1.338303 -30.221293 -7.125000 0.000000 0.000000 83.159987 5.251802 22.841189 -23.161861 23.603915 -5.992911 1.516869 0.091645 -14.868606 7.125000 0.000000 0.000000 
